<svg xmlns="http://www.w3.org/2000/svg" version="1.1" xmlns:xlink="http://www.w3.org/1999/xlink" xmlns:svgjs="http://svgjs.dev/svgjs" width="2000" height="469" viewBox="0 0 2000 469"><g transform="matrix(1,0,0,1,-1.2120917233620503,0.7067896601641053)"><svg viewBox="0 0 396 93" data-background-color="#ffffff" preserveAspectRatio="xMidYMid meet" height="469" width="2000" xmlns="http://www.w3.org/2000/svg" xmlns:xlink="http://www.w3.org/1999/xlink"><g id="tight-bounds" transform="matrix(1,0,0,1,0.23999863288520373,-0.1401523206722004)"><svg viewBox="0 0 395.52 93.28030464134443" height="93.28030464134443" width="395.52"><g><svg viewBox="0 0 532.408464942421 125.56438057104465" height="93.28030464134443" width="395.52"><g transform="matrix(1,0,0,1,136.88846494242097,38.80121615048706)"><svg viewBox="0 0 395.52 47.961948270070536" height="47.961948270070536" width="395.52"><g id="textblocktransform"><svg viewBox="0 0 395.52 47.961948270070536" height="47.961948270070536" width="395.52" id="textblock"><g><svg viewBox="0 0 395.52 47.961948270070536" height="47.961948270070536" width="395.52"><g transform="matrix(1,0,0,1,0,0)"><svg width="395.52" viewBox="1.100000023841858 -35.5 297.67999267578125 36.099998474121094" height="47.961948270070536" data-palette-color="#000000"><path d="M14.9 0L8.5 0 1.1-34.9 6.5-34.9 10.6-13.75 11.7-5.65 12.35-5.65 13.45-13.65 17.85-34.9 24.3-34.9 28.75-13.65 29.85-5.65 30.5-5.65 31.6-13.75 35.7-34.9 40.9-34.9 33.25 0 26.9 0 22.4-21.5 21.3-29.55 20.7-29.55 19.6-21.5 14.9 0ZM69.85 0L64.5 0 61.8-9.65 50.05-9.65 47.35 0 42.15 0 52.6-34.9 59.35-34.9 69.85 0ZM60.55-14L57.3-25 56.2-30.1 55.55-30.1 54.45-25 51.35-14 60.55-14ZM80.05-14.25L80.05 0 74.75 0 74.75-34.9 88.55-34.9Q93.05-34.9 95.32-32.23 97.6-29.55 97.6-24.55L97.6-24.55Q97.6-20.5 96.1-18 94.6-15.5 91.6-14.65L91.6-14.65 98.25 0 92.35 0 86.3-14.25 80.05-14.25ZM80.05-18.7L88.1-18.7Q90-18.7 90.97-19.68 91.95-20.65 91.95-22.85L91.95-22.85 91.95-26.1Q91.95-28.3 90.97-29.28 90-30.25 88.1-30.25L88.1-30.25 80.05-30.25 80.05-18.7ZM109.64 0L104.34 0 104.34-34.9 118.14-34.9Q122.64-34.9 124.92-32.23 127.19-29.55 127.19-24.5L127.19-24.5Q127.19-19.45 124.92-16.78 122.64-14.1 118.14-14.1L118.14-14.1 109.64-14.1 109.64 0ZM109.64-30.2L109.64-18.8 117.69-18.8Q119.59-18.8 120.57-19.78 121.54-20.75 121.54-22.9L121.54-22.9 121.54-26.1Q121.54-28.25 120.57-29.23 119.59-30.2 117.69-30.2L117.69-30.2 109.64-30.2ZM144.54 0.6L144.54 0.6Q141.49 0.6 139.07-0.43 136.64-1.45 134.92-3.65 133.19-5.85 132.27-9.28 131.34-12.7 131.34-17.45L131.34-17.45Q131.34-22.2 132.27-25.63 133.19-29.05 134.92-31.25 136.64-33.45 139.07-34.48 141.49-35.5 144.54-35.5L144.54-35.5Q148.99-35.5 151.67-33.58 154.34-31.65 155.94-27.8L155.94-27.8 151.44-25.3Q150.54-28.25 148.92-29.55 147.29-30.85 144.54-30.85L144.54-30.85Q140.99-30.85 139.02-28.4 137.04-25.95 137.04-21.65L137.04-21.65 137.04-13.25Q137.04-8.95 139.02-6.5 140.99-4.05 144.54-4.05L144.54-4.05Q147.34-4.05 149.07-5.45 150.79-6.85 151.74-9.95L151.74-9.95 156.14-7.35Q154.49-3.5 151.74-1.45 148.99 0.6 144.54 0.6ZM180.59 0L180.59-15.45 166.69-15.45 166.69 0 161.39 0 161.39-34.9 166.69-34.9 166.69-20.05 180.59-20.05 180.59-34.9 185.89-34.9 185.89 0 180.59 0ZM218.49 0L213.14 0 210.44-9.65 198.69-9.65 195.99 0 190.79 0 201.24-34.9 207.99-34.9 218.49 0ZM209.19-14L205.94-25 204.84-30.1 204.19-30.1 203.09-25 199.99-14 209.19-14ZM228.68-14.25L228.68 0 223.38 0 223.38-34.9 237.18-34.9Q241.68-34.9 243.96-32.23 246.23-29.55 246.23-24.55L246.23-24.55Q246.23-20.5 244.73-18 243.23-15.5 240.23-14.65L240.23-14.65 246.88 0 240.98 0 234.93-14.25 228.68-14.25ZM228.68-18.7L236.73-18.7Q238.63-18.7 239.61-19.68 240.58-20.65 240.58-22.85L240.58-22.85 240.58-26.1Q240.58-28.3 239.61-29.28 238.63-30.25 236.73-30.25L236.73-30.25 228.68-30.25 228.68-18.7ZM273.13-30.25L263.88-30.25 263.88 0 258.58 0 258.58-30.25 249.33-30.25 249.33-34.9 273.13-34.9 273.13-30.25ZM287.23 0.6L287.23 0.6Q283.33 0.6 280.45-0.88 277.58-2.35 275.53-5.15L275.53-5.15 279.18-8.5Q280.73-6.35 282.73-5.2 284.73-4.05 287.28-4.05L287.28-4.05Q293.48-4.05 293.48-9.75L293.48-9.75Q293.48-12.05 292.38-13.28 291.28-14.5 288.58-15.15L288.58-15.15 285.73-15.75Q281.03-16.8 278.8-19.13 276.58-21.45 276.58-25.65L276.58-25.65Q276.58-30.5 279.5-33 282.43-35.5 287.68-35.5L287.68-35.5Q291.43-35.5 294-34.23 296.58-32.95 298.48-30.25L298.48-30.25 294.83-27.05Q293.48-28.95 291.8-29.9 290.13-30.85 287.58-30.85L287.58-30.85Q284.73-30.85 283.3-29.68 281.88-28.5 281.88-25.8L281.88-25.8Q281.88-23.6 283-22.48 284.13-21.35 286.68-20.75L286.68-20.75 289.53-20.1Q292.03-19.55 293.78-18.73 295.53-17.9 296.65-16.7 297.78-15.5 298.28-13.88 298.78-12.25 298.78-10.1L298.78-10.1Q298.78-4.85 295.75-2.13 292.73 0.6 287.23 0.6Z" opacity="1" transform="matrix(1,0,0,1,0,0)" fill="#000000" class="wordmark-text-0" data-fill-palette-color="primary" id="text-0"></path></svg></g></svg></g></svg></g></svg></g><g><svg viewBox="0 0 125.56580004261579 125.56438057104465" height="125.56438057104465" width="125.56580004261579"><g><svg xmlns="http://www.w3.org/2000/svg" xmlns:xlink="http://www.w3.org/1999/xlink" version="1.1" x="0" y="0" viewBox="1.2917635440826416 1.2929997444152832 61.41523742675781 61.41454315185547" style="enable-background:new 0 0 64 64;" xml:space="preserve" height="125.56438057104465" width="125.56580004261579" class="icon-icon-0" data-fill-palette-color="accent" id="icon-0"><g fill="#000000" data-fill-palette-color="accent"><path d="M21.387 29.965l-3.185 6.823 9.01 9.01 6.823-3.185c4.898-2.285 9.32-5.383 13.144-9.206 5.603-5.602 9.627-12.474 11.775-20.04l-8.322-8.321c-7.565 2.148-14.437 6.173-20.04 11.775C26.77 20.644 23.673 25.066 21.387 29.965zM24.346 28.525l1.761 0.949c-0.345 0.641-0.675 1.292-0.988 1.953l-1.808-0.855C23.639 29.88 23.984 29.197 24.346 28.525zM25.933 42.347l-4.28-4.279 10.273-12.556 6.562 6.562L25.933 42.347zM45 11c4.411 0 8 3.589 8 8s-3.589 8-8 8-8-3.589-8-8S40.589 11 45 11zM34.127 16.249l1.319 1.502c-0.696 0.612-1.378 1.251-2.026 1.898-2.373 2.373-4.456 5.021-6.193 7.871l-1.708-1.041c1.82-2.985 4.002-5.759 6.487-8.244C32.685 17.558 33.398 16.889 34.127 16.249z" fill="#000000" data-fill-palette-color="accent"></path><polygon points="17.217,41.803 22.197,46.783 24.312,45.726 18.274,39.688  " fill="#000000" data-fill-palette-color="accent"></polygon><path d="M19.574 29.119c1.104-2.367 2.399-4.622 3.857-6.763-5.939 1.148-8.468 4.962-9.231 6.43l3.77 3.77L19.574 29.119z" fill="#000000" data-fill-palette-color="accent"></path><path d="M59.825 9.777l1.172-5.859c-0.04-0.486-0.428-0.875-0.915-0.915l-5.859 1.172c-0.449 0.09-0.895 0.191-1.34 0.294l6.649 6.648C59.634 10.672 59.735 10.227 59.825 9.777z" fill="#000000" data-fill-palette-color="accent"></path><polygon points="26.067,39.653 35.512,31.926 32.074,28.488 24.347,37.933  " fill="#000000" data-fill-palette-color="accent"></polygon><path d="M45 25c3.309 0 6-2.691 6-6s-2.691-6-6-6-6 2.691-6 6S41.691 25 45 25zM45 15c2.206 0 4 1.794 4 4s-1.794 4-4 4-4-1.794-4-4S42.794 15 45 15z" fill="#000000" data-fill-palette-color="accent"></path><circle cx="45" cy="19" r="2.0" fill="#000000" data-fill-palette-color="accent"></circle><path d="M34.88 44.426l-3.437 1.604 3.771 3.771c1.464-0.762 5.282-3.29 6.43-9.231C39.503 42.027 37.248 43.321 34.88 44.426z" fill="#000000" data-fill-palette-color="accent"></path><rect x="39.586" y="60" transform="matrix(0.7071 -0.7071 0.7071 0.7071 -31.1249 46.8579)" width="2.828" height="2" fill="#000000" data-fill-palette-color="accent"></rect><path d="M46.833 53.753l-4.54 4.54 1.414 1.414 4.54-4.54C47.686 54.795 47.205 54.314 46.833 53.753z" fill="#000000" data-fill-palette-color="accent"></path><path d="M53.753 46.833c0.561 0.372 1.042 0.853 1.414 1.414l7.54-7.54-1.414-1.414L53.753 46.833z" fill="#000000" data-fill-palette-color="accent"></path><circle cx="51" cy="51" r="3.0" fill="#000000" data-fill-palette-color="accent"></circle><rect x="1.586" y="60" transform="matrix(0.7071 -0.7071 0.7071 0.7071 -42.2557 19.9888)" width="2.828" height="2" fill="#000000" data-fill-palette-color="accent"></rect><rect x="2.515" y="52" transform="matrix(0.7071 -0.7071 0.7071 0.7071 -34.2548 23.3015)" width="16.971" height="2" fill="#000000" data-fill-palette-color="accent"></rect><rect x="9.586" y="57" transform="matrix(0.7071 -0.7071 0.7071 0.7071 -37.7907 24.7665)" width="2.828" height="2" fill="#000000" data-fill-palette-color="accent"></rect><rect x="11.757" y="52" transform="matrix(0.7071 -0.7071 0.7071 0.7071 -32.7904 26.837)" width="8.485" height="2" fill="#000000" data-fill-palette-color="accent"></rect><rect x="4.586" y="52" transform="matrix(0.7071 -0.7071 0.7071 0.7071 -35.7193 19.766)" width="2.828" height="2" fill="#000000" data-fill-palette-color="accent"></rect><rect x="6.757" y="47" transform="matrix(0.7071 -0.7071 0.7071 0.7071 -30.7193 21.837)" width="8.485" height="2" fill="#000000" data-fill-palette-color="accent"></rect><rect x="50.586" y="36" transform="matrix(0.7071 -0.7071 0.7071 0.7071 -10.9325 47.6066)" width="2.828" height="2" fill="#000000" data-fill-palette-color="accent"></rect><rect x="52.343" y="30" transform="matrix(0.7071 -0.7071 0.7071 0.7071 -4.9325 50.0919)" width="11.314" height="2" fill="#000000" data-fill-palette-color="accent"></rect><rect x="20.586" y="15" transform="matrix(0.7071 -0.7071 0.7071 0.7071 -4.8701 20.2426)" width="2.828" height="2" fill="#000000" data-fill-palette-color="accent"></rect><rect x="22.343" y="9" transform="matrix(0.7071 -0.7071 0.7071 0.7071 1.1299 22.7279)" width="11.314" height="2" fill="#000000" data-fill-palette-color="accent"></rect><path d="M4.247 24.167c-0.561-0.372-1.042-0.852-1.414-1.414l-1.54 1.54 1.414 1.414L4.247 24.167z" fill="#000000" data-fill-palette-color="accent"></path><path d="M11.167 17.247l14.54-14.54-1.414-1.414-14.54 14.54C10.314 16.205 10.795 16.685 11.167 17.247z" fill="#000000" data-fill-palette-color="accent"></path><circle cx="7" cy="20" r="3.0" fill="#000000" data-fill-palette-color="accent"></circle><rect x="4.172" y="35" transform="matrix(0.7071 -0.7071 0.7071 0.7071 -23.4056 15.4939)" width="5.657" height="2" fill="#000000" data-fill-palette-color="accent"></rect><rect x="1.586" y="39" transform="matrix(0.7071 -0.7071 0.7071 0.7071 -27.4061 13.8377)" width="2.828" height="2" fill="#000000" data-fill-palette-color="accent"></rect><rect x="29.172" y="56" transform="matrix(0.7071 -0.7071 0.7071 0.7071 -30.9325 39.3223)" width="5.657" height="2" fill="#000000" data-fill-palette-color="accent"></rect><rect x="26.586" y="60" transform="matrix(0.7071 -0.7071 0.7071 0.7071 -34.9325 37.6655)" width="2.828" height="2" fill="#000000" data-fill-palette-color="accent"></rect></g></svg></g></svg></g></svg></g><defs></defs></svg><rect width="395.52" height="93.28030464134443" fill="none" stroke="none" visibility="hidden"></rect></g></svg></g></svg>