<svg xmlns="http://www.w3.org/2000/svg" xmlns:xlink="http://www.w3.org/1999/xlink" version="1.1" class="marks" width="417" height="347" viewBox="0 0 417 347"><rect width="417" height="347" fill="white"/><g fill="none" stroke-miterlimit="10" transform="translate(44,10)"><g class="mark-group role-frame root" role="graphics-object" aria-roledescription="group mark container"><g transform="translate(0,0)"><path class="background" aria-hidden="true" d="M0.5,0.5h300v300h-300Z" stroke="#ddd"/><g><g class="mark-group role-axis" aria-hidden="true"><g transform="translate(0.5,300.5)"><path class="background" aria-hidden="true" d="M0,0h0v0h0Z" pointer-events="none"/><g><g class="mark-rule role-axis-grid" pointer-events="none"><line transform="translate(0,-300)" x2="0" y2="300" stroke="#ddd" stroke-width="1" opacity="1"/><line transform="translate(30,-300)" x2="0" y2="300" stroke="#ddd" stroke-width="1" opacity="1"/><line transform="translate(59,-300)" x2="0" y2="300" stroke="#ddd" stroke-width="1" opacity="1"/><line transform="translate(89,-300)" x2="0" y2="300" stroke="#ddd" stroke-width="1" opacity="1"/><line transform="translate(118,-300)" x2="0" y2="300" stroke="#ddd" stroke-width="1" opacity="1"/><line transform="translate(148,-300)" x2="0" y2="300" stroke="#ddd" stroke-width="1" opacity="1"/><line transform="translate(177,-300)" x2="0" y2="300" stroke="#ddd" stroke-width="1" opacity="1"/><line transform="translate(207,-300)" x2="0" y2="300" stroke="#ddd" stroke-width="1" opacity="1"/><line transform="translate(236,-300)" x2="0" y2="300" stroke="#ddd" stroke-width="1" opacity="1"/><line transform="translate(266,-300)" x2="0" y2="300" stroke="#ddd" stroke-width="1" opacity="1"/><line transform="translate(295,-300)" x2="0" y2="300" stroke="#ddd" stroke-width="1" opacity="1"/></g></g><path class="foreground" aria-hidden="true" d="" pointer-events="none" display="none"/></g></g><g class="mark-group role-axis" aria-hidden="true"><g transform="translate(0.5,0.5)"><path class="background" aria-hidden="true" d="M0,0h0v0h0Z" pointer-events="none"/><g><g class="mark-rule role-axis-grid" pointer-events="none"><line transform="translate(0,300)" x2="300" y2="0" stroke="#ddd" stroke-width="1" opacity="1"/><line transform="translate(0,263)" x2="300" y2="0" stroke="#ddd" stroke-width="1" opacity="1"/><line transform="translate(0,225)" x2="300" y2="0" stroke="#ddd" stroke-width="1" opacity="1"/><line transform="translate(0,188)" x2="300" y2="0" stroke="#ddd" stroke-width="1" opacity="1"/><line transform="translate(0,150)" x2="300" y2="0" stroke="#ddd" stroke-width="1" opacity="1"/><line transform="translate(0,113)" x2="300" y2="0" stroke="#ddd" stroke-width="1" opacity="1"/><line transform="translate(0,75)" x2="300" y2="0" stroke="#ddd" stroke-width="1" opacity="1"/><line transform="translate(0,38)" x2="300" y2="0" stroke="#ddd" stroke-width="1" opacity="1"/><line transform="translate(0,0)" x2="300" y2="0" stroke="#ddd" stroke-width="1" opacity="1"/></g></g><path class="foreground" aria-hidden="true" d="" pointer-events="none" display="none"/></g></g><g class="mark-group role-axis" role="graphics-symbol" aria-roledescription="axis" aria-label="X-axis titled 'date' for a time scale with values from Saturday, 01 January 2000, 12:00:00 AM to Monday, 01 March 2010, 12:00:00 AM"><g transform="translate(0.5,300.5)"><path class="background" aria-hidden="true" d="M0,0h0v0h0Z" pointer-events="none"/><g><g class="mark-rule role-axis-tick" pointer-events="none"><line transform="translate(0,0)" x2="0" y2="5" stroke="#888" stroke-width="1" opacity="1"/><line transform="translate(30,0)" x2="0" y2="5" stroke="#888" stroke-width="1" opacity="1"/><line transform="translate(59,0)" x2="0" y2="5" stroke="#888" stroke-width="1" opacity="1"/><line transform="translate(89,0)" x2="0" y2="5" stroke="#888" stroke-width="1" opacity="1"/><line transform="translate(118,0)" x2="0" y2="5" stroke="#888" stroke-width="1" opacity="1"/><line transform="translate(148,0)" x2="0" y2="5" stroke="#888" stroke-width="1" opacity="1"/><line transform="translate(177,0)" x2="0" y2="5" stroke="#888" stroke-width="1" opacity="1"/><line transform="translate(207,0)" x2="0" y2="5" stroke="#888" stroke-width="1" opacity="1"/><line transform="translate(236,0)" x2="0" y2="5" stroke="#888" stroke-width="1" opacity="1"/><line transform="translate(266,0)" x2="0" y2="5" stroke="#888" stroke-width="1" opacity="1"/><line transform="translate(295,0)" x2="0" y2="5" stroke="#888" stroke-width="1" opacity="1"/></g><g class="mark-text role-axis-label" pointer-events="none"><text text-anchor="start" transform="translate(0,15)" font-family="sans-serif" font-size="10px" fill="#000" opacity="1">2000</text><text text-anchor="middle" transform="translate(29.579741379310345,15)" font-family="sans-serif" font-size="10px" fill="#000" opacity="0">2001</text><text text-anchor="middle" transform="translate(59.07866379310345,15)" font-family="sans-serif" font-size="10px" fill="#000" opacity="1">2002</text><text text-anchor="middle" transform="translate(88.57758620689656,15)" font-family="sans-serif" font-size="10px" fill="#000" opacity="0">2003</text><text text-anchor="middle" transform="translate(118.07650862068965,15)" font-family="sans-serif" font-size="10px" fill="#000" opacity="1">2004</text><text text-anchor="middle" transform="translate(147.65625,15)" font-family="sans-serif" font-size="10px" fill="#000" opacity="0">2005</text><text text-anchor="middle" transform="translate(177.1551724137931,15)" font-family="sans-serif" font-size="10px" fill="#000" opacity="1">2006</text><text text-anchor="middle" transform="translate(206.6540948275862,15)" font-family="sans-serif" font-size="10px" fill="#000" opacity="0">2007</text><text text-anchor="middle" transform="translate(236.1530172413793,15)" font-family="sans-serif" font-size="10px" fill="#000" opacity="1">2008</text><text text-anchor="middle" transform="translate(265.73275862068965,15)" font-family="sans-serif" font-size="10px" fill="#000" opacity="0">2009</text><text text-anchor="middle" transform="translate(295.2316810344828,15)" font-family="sans-serif" font-size="10px" fill="#000" opacity="1">2010</text></g><g class="mark-rule role-axis-domain" pointer-events="none"><line transform="translate(0,0)" x2="300" y2="0" stroke="#888" stroke-width="1" opacity="1"/></g><g class="mark-text role-axis-title" pointer-events="none"><text text-anchor="middle" transform="translate(150,30)" font-family="sans-serif" font-size="11px" font-weight="bold" fill="#000" opacity="1">date</text></g></g><path class="foreground" aria-hidden="true" d="" pointer-events="none" display="none"/></g></g><g class="mark-group role-axis" role="graphics-symbol" aria-roledescription="axis" aria-label="Y-axis titled 'price' for a linear scale with values from 0 to 800"><g transform="translate(0.5,0.5)"><path class="background" aria-hidden="true" d="M0,0h0v0h0Z" pointer-events="none"/><g><g class="mark-rule role-axis-tick" pointer-events="none"><line transform="translate(0,300)" x2="-5" y2="0" stroke="#888" stroke-width="1" opacity="1"/><line transform="translate(0,263)" x2="-5" y2="0" stroke="#888" stroke-width="1" opacity="1"/><line transform="translate(0,225)" x2="-5" y2="0" stroke="#888" stroke-width="1" opacity="1"/><line transform="translate(0,188)" x2="-5" y2="0" stroke="#888" stroke-width="1" opacity="1"/><line transform="translate(0,150)" x2="-5" y2="0" stroke="#888" stroke-width="1" opacity="1"/><line transform="translate(0,113)" x2="-5" y2="0" stroke="#888" stroke-width="1" opacity="1"/><line transform="translate(0,75)" x2="-5" y2="0" stroke="#888" stroke-width="1" opacity="1"/><line transform="translate(0,38)" x2="-5" y2="0" stroke="#888" stroke-width="1" opacity="1"/><line transform="translate(0,0)" x2="-5" y2="0" stroke="#888" stroke-width="1" opacity="1"/></g><g class="mark-text role-axis-label" pointer-events="none"><text text-anchor="end" transform="translate(-7,303)" font-family="sans-serif" font-size="10px" fill="#000" opacity="1">0</text><text text-anchor="end" transform="translate(-7,265.5)" font-family="sans-serif" font-size="10px" fill="#000" opacity="1">100</text><text text-anchor="end" transform="translate(-7,228)" font-family="sans-serif" font-size="10px" fill="#000" opacity="1">200</text><text text-anchor="end" transform="translate(-7,190.5)" font-family="sans-serif" font-size="10px" fill="#000" opacity="1">300</text><text text-anchor="end" transform="translate(-7,153)" font-family="sans-serif" font-size="10px" fill="#000" opacity="1">400</text><text text-anchor="end" transform="translate(-7,115.5)" font-family="sans-serif" font-size="10px" fill="#000" opacity="1">500</text><text text-anchor="end" transform="translate(-7,78)" font-family="sans-serif" font-size="10px" fill="#000" opacity="1">600</text><text text-anchor="end" transform="translate(-7,40.5)" font-family="sans-serif" font-size="10px" fill="#000" opacity="1">700</text><text text-anchor="end" transform="translate(-7,3)" font-family="sans-serif" font-size="10px" fill="#000" opacity="1">800</text></g><g class="mark-rule role-axis-domain" pointer-events="none"><line transform="translate(0,300)" x2="0" y2="-300" stroke="#888" stroke-width="1" opacity="1"/></g><g class="mark-text role-axis-title" pointer-events="none"><text text-anchor="middle" transform="translate(-27.6845703125,150) rotate(-90) translate(0,-2)" font-family="sans-serif" font-size="11px" font-weight="bold" fill="#000" opacity="1">price</text></g></g><path class="foreground" aria-hidden="true" d="" pointer-events="none" display="none"/></g></g><g class="mark-group role-scope pathgroup" role="graphics-object" aria-roledescription="group mark container"><g transform="translate(0,0)"><path class="background" aria-hidden="true" d="M0,0h300v300h-300Z"/><g><g class="mark-line role-mark marks" role="graphics-object" aria-roledescription="line mark container"><path aria-label="date: Jan 01, 2000; price: 39.81; symbol: MSFT" role="graphics-symbol" aria-roledescription="line mark" d="M0,285.071C0.835,285.72,1.67,286.369,2.505,286.369C3.287,286.369,4.068,283.793,4.849,283.793C5.684,283.793,6.519,288.607,7.355,289.361C8.163,290.091,8.971,290.456,9.779,290.456C10.614,290.456,11.449,287.798,12.284,287.798C13.093,287.798,13.901,289.35,14.709,289.35C15.544,289.35,16.379,289.35,17.214,289.35C18.05,289.35,18.885,290.801,19.72,290.801C20.528,290.801,21.336,289.493,22.144,289.493C22.98,289.493,23.815,290.586,24.65,291.248C25.458,291.887,26.266,293.381,27.074,293.381C27.909,293.381,28.745,290.685,29.58,290.685C30.415,290.685,31.25,290.823,32.085,291C32.839,291.16,33.594,291.656,34.348,291.656C35.183,291.656,36.018,289.815,36.853,289.665C37.662,289.52,38.47,289.577,39.278,289.448C40.113,289.314,40.948,288.863,41.783,288.863C42.592,288.863,43.4,289.504,44.208,289.901C45.043,290.312,45.878,290.914,46.713,291.296C47.548,291.678,48.384,292.193,49.219,292.193C50.027,292.193,50.835,291.458,51.643,291.131C52.478,290.794,53.314,290.411,54.149,290.205C54.957,290.005,55.765,289.894,56.573,289.894C57.408,289.894,58.244,290.079,59.079,290.28C59.914,290.481,60.749,291.101,61.584,291.101C62.338,291.101,63.093,290.801,63.847,290.801C64.682,290.801,65.517,291.885,66.352,292.028C67.161,292.165,67.969,292.234,68.777,292.234C69.612,292.234,70.447,291.656,71.282,291.656C72.091,291.656,72.899,292.68,73.707,292.68C74.542,292.68,75.377,292.511,76.212,292.511C77.047,292.511,77.883,293.329,78.718,293.329C79.526,293.329,80.334,292.197,81.142,291.844C81.977,291.479,82.813,291.203,83.648,291.203C84.456,291.203,85.264,291.857,86.072,292.114C86.907,292.379,87.742,292.759,88.578,292.759C89.413,292.759,90.248,292.755,91.083,292.748C91.837,292.741,92.592,292.677,93.346,292.59C94.181,292.494,95.016,292.174,95.851,292.174C96.659,292.174,97.468,292.466,98.276,292.466C99.111,292.466,99.946,292.244,100.781,292.151C101.589,292.061,102.398,291.937,103.206,291.915C104.041,291.893,104.876,291.904,105.711,291.881C106.546,291.859,107.381,291.491,108.217,291.491C109.025,291.491,109.833,291.872,110.641,291.956C111.476,292.044,112.311,292.088,113.147,292.088C113.955,292.088,114.763,291.633,115.571,291.578C116.406,291.52,117.241,291.491,118.077,291.491C118.912,291.491,119.747,291.69,120.582,291.836C121.363,291.973,122.144,292.328,122.926,292.328C123.761,292.328,124.596,291.977,125.431,291.956C126.239,291.936,127.047,291.946,127.856,291.926C128.691,291.906,129.526,291.21,130.361,291.21C131.169,291.21,131.977,291.218,132.786,291.233C133.621,291.248,134.456,291.574,135.291,291.574C136.126,291.574,136.961,291.5,137.796,291.465C138.605,291.431,139.413,291.433,140.221,291.368C141.056,291.3,141.891,290.775,142.726,290.775C143.534,290.775,144.343,290.785,145.151,290.805C145.986,290.826,146.821,290.873,147.656,290.959C148.491,291.044,149.327,291.196,150.162,291.319C150.916,291.43,151.67,291.66,152.425,291.66C153.26,291.66,154.095,291.369,154.93,291.27C155.738,291.174,156.546,291.068,157.355,291.068C158.19,291.068,159.025,291.401,159.86,291.401C160.668,291.401,161.476,291.282,162.284,291.135C163.12,290.983,163.955,290.494,164.79,290.494C165.625,290.494,166.46,291.056,167.295,291.064C168.103,291.071,168.912,291.075,169.72,291.075C170.555,291.075,171.39,290.359,172.225,290.359C173.033,290.359,173.842,290.891,174.65,290.891C175.485,290.891,176.32,290.198,177.155,290.198C177.99,290.198,178.825,290.61,179.661,290.61C180.415,290.61,181.169,290.49,181.923,290.49C182.759,290.49,183.594,291.301,184.429,291.563C185.237,291.816,186.045,292.054,186.853,292.054C187.689,292.054,188.524,291.909,189.359,291.825C190.167,291.744,190.975,291.7,191.783,291.559C192.619,291.413,193.454,291.149,194.289,290.951C195.124,290.753,195.959,290.549,196.794,290.37C197.602,290.196,198.411,290.013,199.219,289.89C200.054,289.763,200.889,289.701,201.724,289.628C202.532,289.556,203.341,289.537,204.149,289.451C204.984,289.363,205.819,289.099,206.654,289.099C207.489,289.099,208.324,289.936,209.159,290.014C209.914,290.084,210.668,290.119,211.422,290.119C212.258,290.119,213.093,289.561,213.928,289.388C214.736,289.22,215.544,289.084,216.352,289.084C217.188,289.084,218.023,289.418,218.858,289.519C219.666,289.616,220.474,289.649,221.282,289.688C222.117,289.727,222.953,289.748,223.788,289.748C224.623,289.748,225.458,289.66,226.293,289.485C227.101,289.316,227.909,286.864,228.718,286.864C229.553,286.864,230.388,287.966,231.223,287.966C232.031,287.966,232.839,287.25,233.648,287.25C234.483,287.25,235.318,287.831,236.153,288.326C236.988,288.822,237.823,290.224,238.658,290.224C239.44,290.224,240.221,289.827,241.002,289.796C241.837,289.764,242.672,289.748,243.508,289.748C244.316,289.748,245.124,289.759,245.932,289.781C246.767,289.805,247.602,289.913,248.438,290.074C249.246,290.229,250.054,290.719,250.862,290.719C251.697,290.719,252.532,290.115,253.367,290.115C254.203,290.115,255.038,290.188,255.873,290.333C256.681,290.473,257.489,291.53,258.297,291.911C259.133,292.305,259.968,292.461,260.803,292.628C261.611,292.789,262.419,292.725,263.227,292.909C264.063,293.098,264.898,293.57,265.733,293.764C266.568,293.958,267.403,294.071,268.238,294.071C268.992,294.071,269.747,293.496,270.501,293.254C271.336,292.985,272.171,292.723,273.006,292.56C273.815,292.402,274.623,292.466,275.431,292.279C276.266,292.085,277.101,291.218,277.936,291.218C278.745,291.218,279.553,291.308,280.361,291.308C281.196,291.308,282.031,290.983,282.866,290.839C283.702,290.694,284.537,290.637,285.372,290.441C286.18,290.252,286.988,289.928,287.796,289.695C288.631,289.454,289.467,289.204,290.302,289.024C291.11,288.849,291.918,288.623,292.726,288.623C293.561,288.623,294.397,289.481,295.232,289.481C296.067,289.481,296.902,289.285,297.737,289.249C298.491,289.216,299.246,289.208,300,289.2" stroke="#54a24b" stroke-width="2"/></g></g><path class="foreground" aria-hidden="true" d="" display="none"/></g><g transform="translate(0,0)"><path class="background" aria-hidden="true" d="M0,0h300v300h-300Z"/><g><g class="mark-line role-mark marks" role="graphics-object" aria-roledescription="line mark container"><path aria-label="date: Jan 01, 2000; price: 64.56; symbol: AMZN" role="graphics-symbol" aria-roledescription="line mark" d="M0,275.79C0.835,274.982,1.67,274.174,2.505,274.174C3.287,274.174,4.068,274.407,4.849,274.875C5.684,275.375,6.519,278.126,7.355,279.304C8.163,280.443,8.971,280.733,9.779,281.884C10.614,283.073,11.449,285.24,12.284,286.384C13.093,287.491,13.901,288.705,14.709,288.705C15.544,288.705,16.379,284.438,17.214,284.438C18.05,284.438,18.885,285.277,19.72,285.585C20.528,285.883,21.336,285.813,22.144,286.268C22.98,286.738,23.815,289.409,24.65,290.741C25.458,292.031,26.266,294.165,27.074,294.165C27.909,294.165,28.745,293.509,29.58,293.509C30.415,293.509,31.25,296.179,32.085,296.179C32.839,296.179,33.594,296.174,34.348,296.164C35.183,296.153,36.018,294.318,36.853,294.083C37.662,293.855,38.47,293.741,39.278,293.741C40.113,293.741,40.948,294.429,41.783,294.694C42.592,294.95,43.4,295,44.208,295.316C45.043,295.643,45.878,296.24,46.713,296.648C47.548,297.055,48.384,297.761,49.219,297.761C50.027,297.761,50.835,297.635,51.643,297.383C52.478,297.122,53.314,295.755,54.149,295.755C54.957,295.755,55.765,295.943,56.573,295.943C57.408,295.943,58.244,294.679,59.079,294.679C59.914,294.679,60.749,294.713,61.584,294.713C62.338,294.713,63.093,294.688,63.847,294.638C64.682,294.582,65.517,293.989,66.352,293.741C67.161,293.501,67.969,293.164,68.777,293.164C69.612,293.164,70.447,293.666,71.282,293.906C72.091,294.138,72.899,294.581,73.707,294.581C74.542,294.581,75.377,294.49,76.212,294.398C77.047,294.305,77.883,294.274,78.718,294.026C79.526,293.787,80.334,293.195,81.142,292.74C81.977,292.27,82.813,291.244,83.648,291.244C84.456,291.244,85.264,292.916,86.072,292.916C86.907,292.916,87.742,291.846,88.578,291.806C89.413,291.766,90.248,291.786,91.083,291.746C91.837,291.71,92.592,290.645,93.346,290.239C94.181,289.789,95.016,289.877,95.851,289.241C96.659,288.626,97.468,286.645,98.276,286.541C99.111,286.434,99.946,286.488,100.781,286.38C101.589,286.276,102.398,285.001,103.206,284.385C104.041,283.748,104.876,283.054,105.711,282.63C106.546,282.206,107.381,282.362,108.217,281.839C109.025,281.332,109.833,279.589,110.641,279.589C111.476,279.589,112.311,279.646,113.147,279.761C113.955,279.873,114.763,280.05,115.571,280.268C116.406,280.493,117.241,280.545,118.077,281.1C118.912,281.655,119.747,283.871,120.582,283.871C121.363,283.871,122.144,283.806,122.926,283.77C123.761,283.732,124.596,283.73,125.431,283.65C126.239,283.573,127.047,282.475,127.856,281.813C128.691,281.128,129.526,279.6,130.361,279.6C131.169,279.6,131.977,285.216,132.786,285.405C133.621,285.6,134.456,285.698,135.291,285.698C136.126,285.698,136.961,284.678,137.796,284.678C138.605,284.678,139.413,287.201,140.221,287.201C141.056,287.201,141.891,285.764,142.726,285.12C143.534,284.497,144.343,283.391,145.151,283.391C145.986,283.391,146.821,283.525,147.656,283.793C148.491,284.06,149.327,286.556,150.162,286.808C150.916,287.035,151.67,286.987,152.425,287.149C153.26,287.328,154.095,287.865,154.93,287.865C155.738,287.865,156.546,286.684,157.355,286.684C158.19,286.684,159.025,287.591,159.86,287.591C160.668,287.591,161.476,283.069,162.284,283.069C163.12,283.069,163.955,283.988,164.79,283.988C165.625,283.988,166.46,283.013,167.295,283.013C168.103,283.013,168.912,285.053,169.72,285.053C170.555,285.053,171.39,281.828,172.225,281.828C173.033,281.828,173.842,282.097,174.65,282.319C175.485,282.548,176.32,282.61,177.155,283.193C177.99,283.775,178.825,285.708,179.661,285.96C180.415,286.188,181.169,286.171,181.923,286.301C182.759,286.446,183.594,286.676,184.429,286.796C185.237,286.913,186.045,287.021,186.853,287.021C187.689,287.021,188.524,285.495,189.359,285.495C190.167,285.495,190.975,289.916,191.783,289.916C192.619,289.916,193.454,288.761,194.289,288.439C195.124,288.116,195.959,288.278,196.794,287.955C197.602,287.643,198.411,286.229,199.219,285.716C200.054,285.186,200.889,284.873,201.724,284.873C202.532,284.873,203.341,285.04,204.149,285.203C204.984,285.37,205.819,285.874,206.654,285.874C207.489,285.874,208.324,285.457,209.159,285.323C209.914,285.201,210.668,285.241,211.422,285.079C212.258,284.899,213.093,278.838,213.928,277.001C214.736,275.224,215.544,274.073,216.352,274.073C217.188,274.073,218.023,274.346,218.858,274.346C219.666,274.346,220.474,270.879,221.282,270.548C222.117,270.205,222.953,270.376,223.788,270.034C224.623,269.691,225.458,265.069,226.293,265.069C227.101,265.069,227.909,266.569,228.718,266.569C229.553,266.569,230.388,266.263,231.223,266.04C232.031,265.824,232.839,265.26,233.648,265.26C234.483,265.26,235.318,269.102,236.153,270.863C236.988,272.623,237.823,275.824,238.658,275.824C239.44,275.824,240.221,274.118,241.002,273.263C241.837,272.348,242.672,271.161,243.508,270.514C244.316,269.888,245.124,269.393,245.932,269.393C246.767,269.393,247.602,272.501,248.438,272.501C249.246,272.501,250.054,271.83,250.862,271.373C251.697,270.9,252.532,269.696,253.367,269.696C254.203,269.696,255.038,271.201,255.873,272.715C256.681,274.18,257.489,276.684,258.297,278.535C259.133,280.448,259.968,283.988,260.803,283.988C261.611,283.988,262.419,281.764,263.227,280.77C264.063,279.743,264.898,278.787,265.733,277.943C266.568,277.098,267.403,276.687,268.238,275.704C268.992,274.816,269.747,273.407,270.501,272.46C271.336,271.411,272.171,269.805,273.006,269.805C273.815,269.805,274.623,270.754,275.431,270.754C276.266,270.754,277.101,269.114,277.936,268.628C278.745,268.157,279.553,267.84,280.361,267.84C281.196,267.84,282.031,269.554,282.866,269.554C283.702,269.554,284.537,267.409,285.372,264.99C286.18,262.649,286.988,258.08,287.796,255.446C288.631,252.724,289.467,249.034,290.302,249.034C291.11,249.034,291.918,249.208,292.726,249.555C293.561,249.914,294.397,251.964,295.232,252.971C296.067,253.979,296.902,255.6,297.737,255.6C298.491,255.6,299.246,253.646,300,251.693" stroke="#f58518" stroke-width="2"/></g></g><path class="foreground" aria-hidden="true" d="" display="none"/></g><g transform="translate(0,0)"><path class="background" aria-hidden="true" d="M0,0h300v300h-300Z"/><g><g class="mark-line role-mark marks" role="graphics-object" aria-roledescription="line mark container"><path aria-label="date: Jan 01, 2000; price: 100.52; symbol: IBM" role="graphics-symbol" aria-roledescription="line mark" d="M0,262.305C0.835,263.882,1.67,265.459,2.505,265.459C3.287,265.459,4.068,260.209,4.849,260.209C5.684,260.209,6.519,261.901,7.355,262.519C8.163,263.116,8.971,263.884,9.779,263.884C10.614,263.884,11.449,263.409,12.284,263.126C13.093,262.853,13.901,262.825,14.709,262.223C15.544,261.6,16.379,255.517,17.214,255.517C18.05,255.517,18.885,260.149,19.72,262.054C20.528,263.897,21.336,265.753,22.144,266.813C22.98,267.907,23.815,267.684,24.65,268.455C25.458,269.202,26.266,271.324,27.074,271.324C27.909,271.324,28.745,262.215,29.58,262.215C30.415,262.215,31.25,265.374,32.085,266.258C32.839,267.055,33.594,267.514,34.348,267.514C35.183,267.514,36.018,261.113,36.853,261.113C37.662,261.113,38.47,262.193,39.278,262.193C40.113,262.193,40.948,261.619,41.783,261.619C42.592,261.619,43.4,263.674,44.208,264.424C45.043,265.199,45.878,265.403,46.713,266.156C47.548,266.909,48.384,268.943,49.219,268.943C50.027,268.943,50.835,264.757,51.643,263.408C52.478,262.013,53.314,261.557,54.149,260.813C54.957,260.092,55.765,258.99,56.573,258.99C57.408,258.99,58.244,262.139,59.079,263.422C59.914,264.706,60.749,266.693,61.584,266.693C62.338,266.693,63.093,264.694,63.847,264.694C64.682,264.694,65.517,270.831,66.352,271.568C67.161,272.28,67.969,271.999,68.777,272.636C69.612,273.294,70.447,275.134,71.282,275.509C72.091,275.871,72.899,276.053,73.707,276.053C74.542,276.053,75.377,274.305,76.212,274.305C77.047,274.305,77.883,280.121,78.718,280.121C79.526,280.121,80.334,274.721,81.142,273.09C81.977,271.404,82.813,270.315,83.648,270.315C84.456,270.315,85.264,273.533,86.072,273.533C86.907,273.533,87.742,273.293,88.578,273.293C89.413,273.293,90.248,273.326,91.083,273.326C91.837,273.326,92.592,273.271,93.346,273.161C94.181,273.039,95.016,271.509,95.851,270.949C96.659,270.407,97.468,269.82,98.276,269.82C99.111,269.82,99.946,271.423,100.781,271.718C101.589,272.003,102.398,272.145,103.206,272.145C104.041,272.145,104.876,272.04,105.711,271.83C106.546,271.62,107.381,269.93,108.217,269.659C109.025,269.396,109.833,269.398,110.641,269.265C111.476,269.127,112.311,269.043,113.147,268.845C113.955,268.653,114.763,268.589,115.571,268.106C116.406,267.607,117.241,265.852,118.077,265.852C118.912,265.852,119.747,266.299,120.582,266.737C121.363,267.148,122.144,267.879,122.926,268.346C123.761,268.846,124.596,269.61,125.431,269.61C126.239,269.61,127.047,269.404,127.856,269.404C128.691,269.404,129.526,269.464,130.361,269.554C131.169,269.641,131.977,269.745,132.786,269.929C133.621,270.119,134.456,270.686,135.291,270.686C136.126,270.686,136.961,270.566,137.796,270.326C138.605,270.094,139.413,269.427,140.221,268.935C141.056,268.427,141.891,267.847,142.726,267.319C143.534,266.808,144.343,265.815,145.151,265.815C145.986,265.815,146.821,267.451,147.656,267.604C148.491,267.756,149.327,267.715,150.162,267.833C150.916,267.939,151.67,267.972,152.425,268.253C153.26,268.563,154.095,273.309,154.93,273.461C155.738,273.609,156.546,273.571,157.355,273.683C158.19,273.798,159.025,274.151,159.86,274.151C160.668,274.151,161.476,270.926,162.284,270.926C163.12,270.926,163.955,271.756,164.79,271.849C165.625,271.941,166.46,271.988,167.295,271.988C168.103,271.988,168.912,271.794,169.72,271.406C170.555,271.006,171.39,268.883,172.225,268.883C173.033,268.883,173.842,271.023,174.65,271.226C175.485,271.436,176.32,271.439,177.155,271.541C177.99,271.644,178.825,271.841,179.661,271.841C180.415,271.841,181.169,271.061,181.923,271.061C182.759,271.061,183.594,271.076,184.429,271.106C185.237,271.135,186.045,271.56,186.853,271.86C187.689,272.17,188.524,272.944,189.359,272.944C190.167,272.944,190.975,272.875,191.783,272.738C192.619,272.595,193.454,271.596,194.289,271.369C195.124,271.141,195.959,271.255,196.794,271.028C197.602,270.807,198.411,267.353,199.219,267.353C200.054,267.353,200.889,267.394,201.724,267.394C202.532,267.394,203.341,265.964,204.149,265.537C204.984,265.096,205.819,264.829,206.654,264.829C207.489,264.829,208.324,266.933,209.159,266.933C209.914,266.933,210.668,266.775,211.422,266.46C212.258,266.111,213.093,264.395,213.928,263.633C214.736,262.894,215.544,261.923,216.352,261.923C217.188,261.923,218.023,262.406,218.858,262.406C219.666,262.406,220.474,261.167,221.282,260.475C222.117,259.759,222.953,258.438,223.788,258.173C224.623,257.908,225.458,257.775,226.293,257.775C227.101,257.775,227.909,257.975,228.718,258.375C229.553,258.788,230.388,262.162,231.223,262.162C232.031,262.162,232.839,261.113,233.648,261.113C234.483,261.113,235.318,261.469,236.153,261.469C236.988,261.469,237.823,259.214,238.658,258.885C239.44,258.578,240.221,258.731,241.002,258.424C241.837,258.095,242.672,257.328,243.508,256.414C244.316,255.529,245.124,253.073,245.932,253.073C246.767,253.073,247.602,257.025,248.438,257.025C249.246,257.025,250.054,253.598,250.862,253.598C251.697,253.598,252.532,255.052,253.367,255.69C254.203,256.328,255.038,256.269,255.873,257.426C256.681,258.546,257.489,264.05,258.297,266.16C259.133,268.34,259.968,270.131,260.803,270.131C261.611,270.131,262.419,269.787,263.227,269.194C264.063,268.58,264.898,266.667,265.733,266.453C266.568,266.238,267.403,266.345,268.238,266.13C268.992,265.936,269.747,264.987,270.501,264.341C271.336,263.627,272.171,262.631,273.006,262.016C273.815,261.421,274.623,260.681,275.431,260.681C276.266,260.681,277.101,261.371,277.936,261.371C278.745,261.371,279.553,256.532,280.361,256.373C281.196,256.207,282.031,256.263,282.866,256.125C283.702,255.987,284.537,255.704,285.372,255.544C286.18,255.389,286.988,255.42,287.796,255.172C288.631,254.917,289.467,253.51,290.302,252.829C291.11,252.169,291.918,251.13,292.726,251.13C293.561,251.13,294.397,254.306,295.232,254.306C296.067,254.306,296.902,252.315,297.737,252.315C298.491,252.315,299.246,252.617,300,252.919" stroke="#72b7b2" stroke-width="2"/></g></g><path class="foreground" aria-hidden="true" d="" display="none"/></g><g transform="translate(0,0)"><path class="background" aria-hidden="true" d="M0,0h300v300h-300Z"/><g><g class="mark-line role-mark marks" role="graphics-object" aria-roledescription="line mark container"><path aria-label="date: Aug 01, 2004; price: 102.37; symbol: GOOG" role="graphics-symbol" aria-roledescription="line mark" d="M135.291,261.611C136.126,259.346,136.961,257.081,137.796,251.4C138.605,245.902,139.413,228.51,140.221,228.51C141.056,228.51,141.891,231.758,142.726,231.758C143.534,231.758,144.343,228.388,145.151,227.704C145.986,226.996,146.821,226.643,147.656,226.643C148.491,226.643,149.327,228.507,150.162,229.504C150.916,230.404,151.67,232.309,152.425,232.309C153.26,232.309,154.095,223.687,154.93,217.5C155.738,211.513,156.546,200.108,157.355,196.024C158.19,191.804,159.025,189.694,159.86,189.694C160.668,189.694,161.476,191.664,162.284,192.09C163.12,192.53,163.955,192.75,164.79,192.75C165.625,192.75,166.46,186.855,167.295,181.328C168.103,175.978,168.912,165.934,169.72,160.448C170.555,154.778,171.39,150.729,172.225,148.159C173.033,145.671,173.842,146.119,174.65,144.428C175.485,142.68,176.32,137.753,177.155,137.753C177.99,137.753,178.825,164.018,179.661,164.018C180.415,164.018,181.169,157.045,181.923,153.75C182.759,150.102,183.594,143.272,184.429,143.272C185.237,143.272,186.045,160.568,186.853,160.568C187.689,160.568,188.524,142.751,189.359,142.751C190.167,142.751,190.975,153.073,191.783,155.025C192.619,157.043,193.454,158.051,194.289,158.051C195.124,158.051,195.959,155.13,196.794,149.288C197.602,143.633,198.411,123.391,199.219,121.354C200.054,119.249,200.889,118.196,201.724,118.196C202.532,118.196,203.341,127.32,204.149,127.32C204.984,127.32,205.819,111.938,206.654,111.938C207.489,111.938,208.324,131.456,209.159,131.456C209.914,131.456,210.668,129.47,211.422,128.19C212.258,126.772,213.093,125.787,213.928,123.233C214.736,120.761,215.544,116.444,216.352,113.284C217.188,110.018,218.023,103.987,218.858,103.987C219.666,103.987,220.474,108.75,221.282,108.75C222.117,108.75,222.953,108.094,223.788,106.781C224.623,105.469,225.458,99.644,226.293,87.274C227.101,75.303,227.909,34.875,228.718,34.875C229.553,34.875,230.388,39.732,231.223,40.125C232.031,40.505,232.839,40.315,233.648,40.695C234.483,41.088,235.318,74.619,236.153,88.388C236.988,102.156,237.823,115.561,238.658,123.307C239.44,130.554,240.221,134.824,241.002,134.824C241.837,134.824,242.672,87.615,243.508,84.641C244.316,81.764,245.124,80.325,245.932,80.325C246.767,80.325,247.602,95.485,248.438,102.593C249.246,109.471,250.054,119.813,250.862,122.344C251.697,124.959,252.532,123.651,253.367,126.266C254.203,128.881,255.038,143.244,255.873,149.805C256.681,156.154,257.489,158.675,258.297,165.24C259.133,172.024,259.968,190.14,260.803,190.14C261.611,190.14,262.419,187.402,263.227,184.631C264.063,181.769,264.898,173.051,265.733,173.051C266.568,173.051,267.403,173.254,268.238,173.254C268.992,173.254,269.747,171.995,270.501,169.478C271.336,166.69,272.171,155.852,273.006,151.511C273.815,147.31,274.623,144.594,275.431,143.539C276.266,142.449,277.101,142.994,277.936,141.904C278.745,140.849,279.553,136.327,280.361,133.856C281.196,131.303,282.031,130.174,282.866,126.874C283.702,123.574,284.537,118.801,285.372,114.056C286.18,109.465,286.988,104.302,287.796,98.955C288.631,93.43,289.467,86.684,290.302,81.375C291.11,76.237,291.918,67.508,292.726,67.508C293.561,67.508,294.397,100.487,295.232,101.273C296.067,102.058,296.902,102.45,297.737,102.45C298.491,102.45,299.246,96.189,300,89.929" stroke="#e45756" stroke-width="2"/></g></g><path class="foreground" aria-hidden="true" d="" display="none"/></g><g transform="translate(0,0)"><path class="background" aria-hidden="true" d="M0,0h300v300h-300Z"/><g><g class="mark-line role-mark marks" role="graphics-object" aria-roledescription="line mark container"><path aria-label="date: Jan 01, 2000; price: 25.94; symbol: AAPL" role="graphics-symbol" aria-roledescription="line mark" d="M0,290.273C0.835,290.027,1.67,289.782,2.505,289.253C3.287,288.757,4.068,287.269,4.849,287.269C5.684,287.269,6.519,287.636,7.355,288.371C8.163,289.083,8.971,292.125,9.779,292.125C10.614,292.125,11.449,290.179,12.284,290.179C13.093,290.179,13.901,290.471,14.709,290.471C15.544,290.471,16.379,288.574,17.214,288.574C18.05,288.574,18.885,294.369,19.72,295.17C20.528,295.945,21.336,296.045,22.144,296.333C22.98,296.63,23.815,296.759,24.65,296.906C25.458,297.049,26.266,297.21,27.074,297.21C27.909,297.21,28.745,295.946,29.58,295.946C30.415,295.946,31.25,296.58,32.085,296.58C32.839,296.58,33.594,296.081,34.348,295.864C35.183,295.623,36.018,295.223,36.853,295.223C37.662,295.223,38.47,296.258,39.278,296.258C40.113,296.258,40.948,295.643,41.783,295.643C42.592,295.643,43.4,296.444,44.208,296.475C45.043,296.508,45.878,296.491,46.713,296.524C47.548,296.556,48.384,297.09,49.219,297.09C50.027,297.09,50.835,296.884,51.643,296.708C52.478,296.526,53.314,296.084,54.149,296.006C54.957,295.931,55.765,295.969,56.573,295.894C57.408,295.816,58.244,295.365,59.079,295.365C59.914,295.365,60.749,295.931,61.584,295.931C62.338,295.931,63.093,295.628,63.847,295.56C64.682,295.485,65.517,295.448,66.352,295.448C67.161,295.448,67.969,295.509,68.777,295.631C69.612,295.758,70.447,296.425,71.282,296.678C72.091,296.922,72.899,297.078,73.707,297.139C74.542,297.201,75.377,297.209,76.212,297.233C77.047,297.256,77.883,297.281,78.718,297.281C79.526,297.281,80.334,296.989,81.142,296.989C81.977,296.989,82.813,297.038,83.648,297.094C84.456,297.148,85.264,297.315,86.072,297.315C86.907,297.315,87.742,297.313,88.578,297.308C89.413,297.303,90.248,297.184,91.083,297.184C91.837,297.184,92.592,297.349,93.346,297.349C94.181,297.349,95.016,297.344,95.851,297.334C96.659,297.324,97.468,296.766,98.276,296.633C99.111,296.495,99.946,296.526,100.781,296.426C101.589,296.329,102.398,296.157,103.206,296.048C104.041,295.934,104.876,295.759,105.711,295.759C106.546,295.759,107.381,296.115,108.217,296.115C109.025,296.115,109.833,295.71,110.641,295.71C111.476,295.71,112.311,296.081,113.147,296.081C113.955,296.081,114.763,296.042,115.571,295.991C116.406,295.939,117.241,295.849,118.077,295.77C118.912,295.691,119.747,295.664,120.582,295.515C121.363,295.376,122.144,294.93,122.926,294.93C123.761,294.93,124.596,295.166,125.431,295.166C126.239,295.166,127.047,294.944,127.856,294.739C128.691,294.526,129.526,293.899,130.361,293.899C131.169,293.899,131.977,293.936,132.786,293.936C133.621,293.936,134.456,293.732,135.291,293.531C136.126,293.331,136.961,293.265,137.796,292.732C138.605,292.217,139.413,291.044,140.221,290.175C141.056,289.277,141.891,287.426,142.726,287.426C143.534,287.426,144.343,287.925,145.151,287.925C145.986,287.925,146.821,286.373,147.656,285.581C148.491,284.79,149.327,283.178,150.162,283.178C150.916,283.178,151.67,283.864,152.425,284.374C153.26,284.939,154.095,286.478,154.93,286.478C155.738,286.478,156.546,285.09,157.355,285.09C158.19,285.09,159.025,286.196,159.86,286.196C160.668,286.196,161.476,284.629,162.284,284.006C163.12,283.362,163.955,283.101,164.79,282.416C165.625,281.731,166.46,280.571,167.295,279.896C168.103,279.244,168.912,279.265,169.72,278.404C170.555,277.514,171.39,275.464,172.225,274.568C173.033,273.7,173.842,273.515,174.65,273.041C175.485,272.552,176.32,271.684,177.155,271.684C177.99,271.684,178.825,273.48,179.661,274.316C180.415,275.071,181.169,276.48,181.923,276.48C182.759,276.48,183.594,273.604,184.429,273.604C185.237,273.604,186.045,276.981,186.853,277.586C187.689,278.211,188.524,278.524,189.359,278.524C190.167,278.524,190.975,274.515,191.783,274.515C192.619,274.515,193.454,274.556,194.289,274.556C195.124,274.556,195.959,271.963,196.794,271.133C197.602,270.329,198.411,270.485,199.219,269.595C200.054,268.675,200.889,265.628,201.724,265.628C202.532,265.628,203.341,268.185,204.149,268.185C204.984,268.185,205.819,267.851,206.654,267.851C207.489,267.851,208.324,268.271,209.159,268.271C209.914,268.271,210.668,266.073,211.422,265.159C212.258,264.146,213.093,264.298,213.928,262.575C214.736,260.908,215.544,254.759,216.352,254.554C217.188,254.341,218.023,254.448,218.858,254.235C219.666,254.029,220.474,251.607,221.282,250.59C222.117,249.539,222.953,249.427,223.788,248.07C224.623,246.713,225.458,245.765,226.293,242.449C227.101,239.24,227.909,228.769,228.718,228.769C229.553,228.769,230.388,231.668,231.223,231.668C232.031,231.668,232.839,225.72,233.648,225.72C234.483,225.72,235.318,246.655,236.153,249.24C236.988,251.825,237.823,253.118,238.658,253.118C239.44,253.118,240.221,249.102,241.002,246.187C241.837,243.072,242.672,237.612,243.508,234.769C244.316,232.017,245.124,229.219,245.932,229.219C246.767,229.219,247.602,235.343,248.438,237.21C249.246,239.017,250.054,240.394,250.862,240.394C251.697,240.394,252.532,236.426,253.367,236.426C254.203,236.426,255.038,255.809,255.873,257.378C256.681,258.895,257.489,258.381,258.297,259.654C259.133,260.969,259.968,263.851,260.803,265.249C261.611,266.601,262.419,267.994,263.227,267.994C264.063,267.994,264.898,266.201,265.733,266.201C266.568,266.201,267.403,266.509,268.238,266.509C268.992,266.509,269.747,262.728,270.501,260.58C271.336,258.202,272.171,254.742,273.006,252.814C273.815,250.948,274.623,250.099,275.431,249.071C276.266,248.009,277.101,248.244,277.936,246.589C278.745,244.987,279.553,239.895,280.361,238.729C281.196,237.524,282.031,238.126,282.866,236.921C283.702,235.716,284.537,231.307,285.372,230.494C286.18,229.706,286.988,230.1,287.796,229.313C288.631,228.499,289.467,226.445,290.302,225.034C291.11,223.668,291.918,220.976,292.726,220.976C293.561,220.976,294.397,227.978,295.232,227.978C296.067,227.978,296.902,225.351,297.737,223.267C298.491,221.386,299.246,218.877,300,216.368" stroke="#4c78a8" stroke-width="2"/></g></g><path class="foreground" aria-hidden="true" d="" display="none"/></g></g><g class="mark-group role-legend" role="graphics-symbol" aria-roledescription="legend" aria-label="Symbol legend titled 'symbol' for stroke color with 5 values: AAPL, AMZN, GOOG, IBM, MSFT"><g transform="translate(320,0)"><path class="background" aria-hidden="true" d="M0,0h48v79h-48Z" pointer-events="none"/><g><g class="mark-group role-legend-entry"><g transform="translate(0,16)"><path class="background" aria-hidden="true" d="M0,0h0v0h0Z" pointer-events="none"/><g><g class="mark-group role-scope" role="graphics-object" aria-roledescription="group mark container"><g transform="translate(0,0)"><path class="background" aria-hidden="true" d="M0,0h47.11328125v11h-47.11328125Z" pointer-events="none" opacity="1"/><g><g class="mark-symbol role-legend-symbol" pointer-events="none"><path transform="translate(6,6)" d="M-5,0L5,0" stroke="#4c78a8" stroke-width="1.5" opacity="1"/></g><g class="mark-text role-legend-label" pointer-events="none"><text text-anchor="start" transform="translate(16,9)" font-family="sans-serif" font-size="10px" fill="#000" opacity="1">AAPL</text></g></g><path class="foreground" aria-hidden="true" d="" pointer-events="none" display="none"/></g><g transform="translate(0,13)"><path class="background" aria-hidden="true" d="M0,0h47.11328125v11h-47.11328125Z" pointer-events="none" opacity="1"/><g><g class="mark-symbol role-legend-symbol" pointer-events="none"><path transform="translate(6,6)" d="M-5,0L5,0" stroke="#f58518" stroke-width="1.5" opacity="1"/></g><g class="mark-text role-legend-label" pointer-events="none"><text text-anchor="start" transform="translate(16,9)" font-family="sans-serif" font-size="10px" fill="#000" opacity="1">AMZN</text></g></g><path class="foreground" aria-hidden="true" d="" pointer-events="none" display="none"/></g><g transform="translate(0,26)"><path class="background" aria-hidden="true" d="M0,0h47.11328125v11h-47.11328125Z" pointer-events="none" opacity="1"/><g><g class="mark-symbol role-legend-symbol" pointer-events="none"><path transform="translate(6,6)" d="M-5,0L5,0" stroke="#e45756" stroke-width="1.5" opacity="1"/></g><g class="mark-text role-legend-label" pointer-events="none"><text text-anchor="start" transform="translate(16,9)" font-family="sans-serif" font-size="10px" fill="#000" opacity="1">GOOG</text></g></g><path class="foreground" aria-hidden="true" d="" pointer-events="none" display="none"/></g><g transform="translate(0,39)"><path class="background" aria-hidden="true" d="M0,0h47.11328125v11h-47.11328125Z" pointer-events="none" opacity="1"/><g><g class="mark-symbol role-legend-symbol" pointer-events="none"><path transform="translate(6,6)" d="M-5,0L5,0" stroke="#72b7b2" stroke-width="1.5" opacity="1"/></g><g class="mark-text role-legend-label" pointer-events="none"><text text-anchor="start" transform="translate(16,9)" font-family="sans-serif" font-size="10px" fill="#000" opacity="1">IBM</text></g></g><path class="foreground" aria-hidden="true" d="" pointer-events="none" display="none"/></g><g transform="translate(0,52)"><path class="background" aria-hidden="true" d="M0,0h47.11328125v11h-47.11328125Z" pointer-events="none" opacity="1"/><g><g class="mark-symbol role-legend-symbol" pointer-events="none"><path transform="translate(6,6)" d="M-5,0L5,0" stroke="#54a24b" stroke-width="1.5" opacity="1"/></g><g class="mark-text role-legend-label" pointer-events="none"><text text-anchor="start" transform="translate(16,9)" font-family="sans-serif" font-size="10px" fill="#000" opacity="1">MSFT</text></g></g><path class="foreground" aria-hidden="true" d="" pointer-events="none" display="none"/></g></g></g><path class="foreground" aria-hidden="true" d="" pointer-events="none" display="none"/></g></g><g class="mark-text role-legend-title" pointer-events="none"><text text-anchor="start" transform="translate(0,9)" font-family="sans-serif" font-size="11px" font-weight="bold" fill="#000" opacity="1">symbol</text></g></g><path class="foreground" aria-hidden="true" d="" pointer-events="none" display="none"/></g></g></g><path class="foreground" aria-hidden="true" d="" display="none"/></g></g></g></svg>