<svg xmlns="http://www.w3.org/2000/svg" xmlns:xlink="http://www.w3.org/1999/xlink" version="1.1" class="marks" width="364" height="318" viewBox="0 0 364 318"><rect width="364" height="318" fill="white"/><g fill="none" stroke-miterlimit="10" transform="translate(6,6)"><g class="mark-group role-frame root" role="graphics-object" aria-roledescription="group mark container"><g transform="translate(0,0)"><path class="background" aria-hidden="true" d="M0,0h300v300h-300Z"/><g><g class="mark-arc role-mark layer_0_marks" role="graphics-object" aria-roledescription="arc mark container"><path aria-label="values: 12" role="graphics-symbol" aria-roledescription="arc mark" transform="translate(150,150)" d="M53.825,-62.457A82.45,82.45,0,0,0,19.366,-80.143L4.698,-19.44A20,20,0,0,1,13.056,-15.15Z" fill="#f58518" stroke="#fff"/><path aria-label="values: 23" role="graphics-symbol" aria-roledescription="arc mark" transform="translate(150,150)" d="M74.153,76.384A106.458,106.458,0,0,0,105.83,-11.546L19.882,-2.169A20,20,0,0,1,13.931,14.35Z" fill="#72b7b2" stroke="#fff"/><path aria-label="values: 47" role="graphics-symbol" aria-roledescription="arc mark" transform="translate(150,150)" d="M-127.094,66.827A143.592,143.592,0,0,0,100.019,103.028L13.931,14.35A20,20,0,0,1,-17.702,9.308Z" fill="#54a24b" stroke="#fff"/><path aria-label="values: 6" role="graphics-symbol" aria-roledescription="arc mark" transform="translate(150,150)" d="M15.07,-62.364A64.159,64.159,0,0,0,0,-64.159L0,-20A20,20,0,0,1,4.698,-19.44Z" fill="#4c78a8" stroke="#fff"/><path aria-label="values: 52" role="graphics-symbol" aria-roledescription="arc mark" transform="translate(150,150)" d="M0,-150A150,150,0,0,0,-132.765,69.809L-17.702,9.308A20,20,0,0,1,0,-20Z" fill="#eeca3b" stroke="#fff"/><path aria-label="values: 19" role="graphics-symbol" aria-roledescription="arc mark" transform="translate(150,150)" d="M98,-10.692A98.581,98.581,0,0,0,64.356,-74.676L13.056,-15.15A20,20,0,0,1,19.882,-2.169Z" fill="#e45756" stroke="#fff"/></g><g class="mark-text role-mark layer_1_marks" role="graphics-object" aria-roledescription="text mark container"><text aria-label="values: 12" role="graphics-symbol" aria-roledescription="text mark" text-anchor="middle" transform="translate(192.21536385715066,70.7512197449262)" font-family="sans-serif" font-size="11px" fill="#f58518">12</text><text aria-label="values: 23" role="graphics-symbol" aria-roledescription="text mark" text-anchor="middle" transform="translate(259.5653734508072,192.47041778753197)" font-family="sans-serif" font-size="11px" fill="#72b7b2">23</text><text aria-label="values: 47" role="graphics-symbol" aria-roledescription="text mark" text-anchor="middle" transform="translate(125.8230494121722,304.6772867533524)" font-family="sans-serif" font-size="11px" fill="#54a24b">47</text><text aria-label="values: 6" role="graphics-symbol" aria-roledescription="text mark" text-anchor="middle" transform="translate(158.77099694004008,79.36170919571693)" font-family="sans-serif" font-size="11px" fill="#4c78a8">6</text><text aria-label="values: 52" role="graphics-symbol" aria-roledescription="text mark" text-anchor="middle" transform="translate(13.043554654129565,70.27798311076064)" font-family="sans-serif" font-size="11px" fill="#eeca3b">52</text><text aria-label="values: 19" role="graphics-symbol" aria-roledescription="text mark" text-anchor="middle" transform="translate(246.10547519983615,102.46676608147672)" font-family="sans-serif" font-size="11px" fill="#e45756">19</text></g><g class="mark-group role-legend" role="graphics-symbol" aria-roledescription="legend" aria-label="Symbol legend titled 'values' for fill color with 6 values: 6, 12, 19, 23, 47, 52"><g transform="translate(318,0)"><path class="background" aria-hidden="true" d="M0,0h35v109h-35Z" pointer-events="none"/><g><g class="mark-group role-legend-entry"><g transform="translate(0,16)"><path class="background" aria-hidden="true" d="M0,0h0v0h0Z" pointer-events="none"/><g><g class="mark-group role-scope" role="graphics-object" aria-roledescription="group mark container"><g transform="translate(0,0)"><path class="background" aria-hidden="true" d="M0,0h27.123046875v12.5h-27.123046875Z" pointer-events="none" opacity="1"/><g><g class="mark-symbol role-legend-symbol" pointer-events="none"><path transform="translate(6,6)" d="M5,0A5,5,0,1,1,-5,0A5,5,0,1,1,5,0" fill="#4c78a8" stroke="#fff" stroke-width="1.5" opacity="1"/></g><g class="mark-text role-legend-label" pointer-events="none"><text text-anchor="start" transform="translate(16,9)" font-family="sans-serif" font-size="10px" fill="#000" opacity="1">6</text></g></g><path class="foreground" aria-hidden="true" d="" pointer-events="none" display="none"/></g><g transform="translate(0,16)"><path class="background" aria-hidden="true" d="M0,0h27.123046875v12.5h-27.123046875Z" pointer-events="none" opacity="1"/><g><g class="mark-symbol role-legend-symbol" pointer-events="none"><path transform="translate(6,6)" d="M5,0A5,5,0,1,1,-5,0A5,5,0,1,1,5,0" fill="#f58518" stroke="#fff" stroke-width="1.5" opacity="1"/></g><g class="mark-text role-legend-label" pointer-events="none"><text text-anchor="start" transform="translate(16,9)" font-family="sans-serif" font-size="10px" fill="#000" opacity="1">12</text></g></g><path class="foreground" aria-hidden="true" d="" pointer-events="none" display="none"/></g><g transform="translate(0,32)"><path class="background" aria-hidden="true" d="M0,0h27.123046875v12.5h-27.123046875Z" pointer-events="none" opacity="1"/><g><g class="mark-symbol role-legend-symbol" pointer-events="none"><path transform="translate(6,6)" d="M5,0A5,5,0,1,1,-5,0A5,5,0,1,1,5,0" fill="#e45756" stroke="#fff" stroke-width="1.5" opacity="1"/></g><g class="mark-text role-legend-label" pointer-events="none"><text text-anchor="start" transform="translate(16,9)" font-family="sans-serif" font-size="10px" fill="#000" opacity="1">19</text></g></g><path class="foreground" aria-hidden="true" d="" pointer-events="none" display="none"/></g><g transform="translate(0,48)"><path class="background" aria-hidden="true" d="M0,0h27.123046875v12.5h-27.123046875Z" pointer-events="none" opacity="1"/><g><g class="mark-symbol role-legend-symbol" pointer-events="none"><path transform="translate(6,6)" d="M5,0A5,5,0,1,1,-5,0A5,5,0,1,1,5,0" fill="#72b7b2" stroke="#fff" stroke-width="1.5" opacity="1"/></g><g class="mark-text role-legend-label" pointer-events="none"><text text-anchor="start" transform="translate(16,9)" font-family="sans-serif" font-size="10px" fill="#000" opacity="1">23</text></g></g><path class="foreground" aria-hidden="true" d="" pointer-events="none" display="none"/></g><g transform="translate(0,64)"><path class="background" aria-hidden="true" d="M0,0h27.123046875v12.5h-27.123046875Z" pointer-events="none" opacity="1"/><g><g class="mark-symbol role-legend-symbol" pointer-events="none"><path transform="translate(6,6)" d="M5,0A5,5,0,1,1,-5,0A5,5,0,1,1,5,0" fill="#54a24b" stroke="#fff" stroke-width="1.5" opacity="1"/></g><g class="mark-text role-legend-label" pointer-events="none"><text text-anchor="start" transform="translate(16,9)" font-family="sans-serif" font-size="10px" fill="#000" opacity="1">47</text></g></g><path class="foreground" aria-hidden="true" d="" pointer-events="none" display="none"/></g><g transform="translate(0,80)"><path class="background" aria-hidden="true" d="M0,0h27.123046875v12.5h-27.123046875Z" pointer-events="none" opacity="1"/><g><g class="mark-symbol role-legend-symbol" pointer-events="none"><path transform="translate(6,6)" d="M5,0A5,5,0,1,1,-5,0A5,5,0,1,1,5,0" fill="#eeca3b" stroke="#fff" stroke-width="1.5" opacity="1"/></g><g class="mark-text role-legend-label" pointer-events="none"><text text-anchor="start" transform="translate(16,9)" font-family="sans-serif" font-size="10px" fill="#000" opacity="1">52</text></g></g><path class="foreground" aria-hidden="true" d="" pointer-events="none" display="none"/></g></g></g><path class="foreground" aria-hidden="true" d="" pointer-events="none" display="none"/></g></g><g class="mark-text role-legend-title" pointer-events="none"><text text-anchor="start" transform="translate(0,9)" font-family="sans-serif" font-size="11px" font-weight="bold" fill="#000" opacity="1">values</text></g></g><path class="foreground" aria-hidden="true" d="" pointer-events="none" display="none"/></g></g></g><path class="foreground" aria-hidden="true" d="" display="none"/></g></g></g></svg>