<svg xmlns="http://www.w3.org/2000/svg" version="1.1" xmlns:xlink="http://www.w3.org/1999/xlink" xmlns:svgjs="http://svgjs.dev/svgjs" width="128" height="128" viewBox="0 0 128 128"><g transform="matrix(0.8046875,0,0,0.8046875,12.760752631578946,12.76016267170585)"><svg viewBox="0 0 95 95" data-background-color="#ffffff" preserveAspectRatio="xMidYMid meet" height="128" width="128" xmlns="http://www.w3.org/2000/svg" xmlns:xlink="http://www.w3.org/1999/xlink"><g id="tight-bounds" transform="matrix(1,0,0,1,-0.24049999999999727,-0.2399558622529696)"><svg viewBox="0 0 95.481 95.47991172450594" height="95.47991172450594" width="95.481"><g><svg viewBox="0 0 95.481 95.47991172450594" height="95.47991172450594" width="95.481"><g><svg viewBox="0 0 95.481 95.47991172450594" height="95.47991172450594" width="95.481"><g id="textblocktransform"><svg viewBox="0 0 95.481 95.47991172450594" height="95.47991172450594" width="95.481" id="textblock"><g><svg viewBox="0 0 95.481 95.47991172450594" height="95.47991172450594" width="95.481"><g><svg viewBox="0 0 95.481 95.47991172450594" height="95.47991172450594" width="95.481"><g><svg xmlns="http://www.w3.org/2000/svg" xmlns:xlink="http://www.w3.org/1999/xlink" version="1.1" x="0" y="0" viewBox="1.2917605999999964 1.2930000000000008 61.415239400000004 61.4145394" style="enable-background:new 0 0 64 64;" xml:space="preserve" height="95.47991172450594" width="95.481" class="icon-icon-0" data-fill-palette-color="accent" id="icon-0"><g fill="#000000" data-fill-palette-color="accent"><path d="M21.387 29.965l-3.185 6.823 9.01 9.01 6.823-3.185c4.898-2.285 9.32-5.383 13.144-9.206 5.603-5.602 9.627-12.474 11.775-20.04l-8.322-8.321c-7.565 2.148-14.437 6.173-20.04 11.775C26.77 20.644 23.673 25.066 21.387 29.965zM24.346 28.525l1.761 0.949c-0.345 0.641-0.675 1.292-0.988 1.953l-1.808-0.855C23.639 29.88 23.984 29.197 24.346 28.525zM25.933 42.347l-4.28-4.279 10.273-12.556 6.562 6.562L25.933 42.347zM45 11c4.411 0 8 3.589 8 8s-3.589 8-8 8-8-3.589-8-8S40.589 11 45 11zM34.127 16.249l1.319 1.502c-0.696 0.612-1.378 1.251-2.026 1.898-2.373 2.373-4.456 5.021-6.193 7.871l-1.708-1.041c1.82-2.985 4.002-5.759 6.487-8.244C32.685 17.558 33.398 16.889 34.127 16.249z" fill="#000000" data-fill-palette-color="accent"></path><polygon points="17.217,41.803 22.197,46.783 24.312,45.726 18.274,39.688  " fill="#000000" data-fill-palette-color="accent"></polygon><path d="M19.574 29.119c1.104-2.367 2.399-4.622 3.857-6.763-5.939 1.148-8.468 4.962-9.231 6.43l3.77 3.77L19.574 29.119z" fill="#000000" data-fill-palette-color="accent"></path><path d="M59.825 9.777l1.172-5.859c-0.04-0.486-0.428-0.875-0.915-0.915l-5.859 1.172c-0.449 0.09-0.895 0.191-1.34 0.294l6.649 6.648C59.634 10.672 59.735 10.227 59.825 9.777z" fill="#000000" data-fill-palette-color="accent"></path><polygon points="26.067,39.653 35.512,31.926 32.074,28.488 24.347,37.933  " fill="#000000" data-fill-palette-color="accent"></polygon><path d="M45 25c3.309 0 6-2.691 6-6s-2.691-6-6-6-6 2.691-6 6S41.691 25 45 25zM45 15c2.206 0 4 1.794 4 4s-1.794 4-4 4-4-1.794-4-4S42.794 15 45 15z" fill="#000000" data-fill-palette-color="accent"></path><circle cx="45" cy="19" r="2.0" fill="#000000" data-fill-palette-color="accent"></circle><path d="M34.88 44.426l-3.437 1.604 3.771 3.771c1.464-0.762 5.282-3.29 6.43-9.231C39.503 42.027 37.248 43.321 34.88 44.426z" fill="#000000" data-fill-palette-color="accent"></path><rect x="39.586" y="60" transform="matrix(0.7071 -0.7071 0.7071 0.7071 -31.1249 46.8579)" width="2.828" height="2" fill="#000000" data-fill-palette-color="accent"></rect><path d="M46.833 53.753l-4.54 4.54 1.414 1.414 4.54-4.54C47.686 54.795 47.205 54.314 46.833 53.753z" fill="#000000" data-fill-palette-color="accent"></path><path d="M53.753 46.833c0.561 0.372 1.042 0.853 1.414 1.414l7.54-7.54-1.414-1.414L53.753 46.833z" fill="#000000" data-fill-palette-color="accent"></path><circle cx="51" cy="51" r="3.0" fill="#000000" data-fill-palette-color="accent"></circle><rect x="1.586" y="60" transform="matrix(0.7071 -0.7071 0.7071 0.7071 -42.2557 19.9888)" width="2.828" height="2" fill="#000000" data-fill-palette-color="accent"></rect><rect x="2.515" y="52" transform="matrix(0.7071 -0.7071 0.7071 0.7071 -34.2548 23.3015)" width="16.971" height="2" fill="#000000" data-fill-palette-color="accent"></rect><rect x="9.586" y="57" transform="matrix(0.7071 -0.7071 0.7071 0.7071 -37.7907 24.7665)" width="2.828" height="2" fill="#000000" data-fill-palette-color="accent"></rect><rect x="11.757" y="52" transform="matrix(0.7071 -0.7071 0.7071 0.7071 -32.7904 26.837)" width="8.485" height="2" fill="#000000" data-fill-palette-color="accent"></rect><rect x="4.586" y="52" transform="matrix(0.7071 -0.7071 0.7071 0.7071 -35.7193 19.766)" width="2.828" height="2" fill="#000000" data-fill-palette-color="accent"></rect><rect x="6.757" y="47" transform="matrix(0.7071 -0.7071 0.7071 0.7071 -30.7193 21.837)" width="8.485" height="2" fill="#000000" data-fill-palette-color="accent"></rect><rect x="50.586" y="36" transform="matrix(0.7071 -0.7071 0.7071 0.7071 -10.9325 47.6066)" width="2.828" height="2" fill="#000000" data-fill-palette-color="accent"></rect><rect x="52.343" y="30" transform="matrix(0.7071 -0.7071 0.7071 0.7071 -4.9325 50.0919)" width="11.314" height="2" fill="#000000" data-fill-palette-color="accent"></rect><rect x="20.586" y="15" transform="matrix(0.7071 -0.7071 0.7071 0.7071 -4.8701 20.2426)" width="2.828" height="2" fill="#000000" data-fill-palette-color="accent"></rect><rect x="22.343" y="9" transform="matrix(0.7071 -0.7071 0.7071 0.7071 1.1299 22.7279)" width="11.314" height="2" fill="#000000" data-fill-palette-color="accent"></rect><path d="M4.247 24.167c-0.561-0.372-1.042-0.852-1.414-1.414l-1.54 1.54 1.414 1.414L4.247 24.167z" fill="#000000" data-fill-palette-color="accent"></path><path d="M11.167 17.247l14.54-14.54-1.414-1.414-14.54 14.54C10.314 16.205 10.795 16.685 11.167 17.247z" fill="#000000" data-fill-palette-color="accent"></path><circle cx="7" cy="20" r="3.0" fill="#000000" data-fill-palette-color="accent"></circle><rect x="4.172" y="35" transform="matrix(0.7071 -0.7071 0.7071 0.7071 -23.4056 15.4939)" width="5.657" height="2" fill="#000000" data-fill-palette-color="accent"></rect><rect x="1.586" y="39" transform="matrix(0.7071 -0.7071 0.7071 0.7071 -27.4061 13.8377)" width="2.828" height="2" fill="#000000" data-fill-palette-color="accent"></rect><rect x="29.172" y="56" transform="matrix(0.7071 -0.7071 0.7071 0.7071 -30.9325 39.3223)" width="5.657" height="2" fill="#000000" data-fill-palette-color="accent"></rect><rect x="26.586" y="60" transform="matrix(0.7071 -0.7071 0.7071 0.7071 -34.9325 37.6655)" width="2.828" height="2" fill="#000000" data-fill-palette-color="accent"></rect></g></svg></g></svg></g></svg></g></svg></g></svg></g></svg></g><defs></defs></svg><rect width="95.481" height="95.47991172450594" fill="none" stroke="none" visibility="hidden"></rect></g></svg></g></svg>